<?xml version="1.0" encoding="utf-8"?>
<!-- Generator: Adobe Illustrator 24.0.2, SVG Export Plug-In . SVG Version: 6.00 Build 0)  -->
<svg version="1.1" id="Layer_1" xmlns="http://www.w3.org/2000/svg" xmlns:xlink="http://www.w3.org/1999/xlink" x="0px" y="0px"
	 viewBox="0 0 879.9 954.7" style="enable-background:new 0 0 879.9 954.7;" xml:space="preserve">
<style type="text/css">
	.st0{display:none;}
	.st1{fill:#273A1B;}
	.st2{fill:#529328;}
	.st3{fill:#242623;}
	.st4{fill:#FFFFFF;}
</style>
<g id="Layer_1_1_" class="st0">
	
		<image style="display:inline;overflow:visible;enable-background:new    ;" width="512" height="512" xlink:href="8543714E.png"  transform="matrix(2.0455 0 0 2 -80.7519 1.2283)">
	</image>
</g>
<g id="Layer_2_1_">
	<polygon class="st1" points="173.6,306.7 700,310 438.2,12.3 	"/>
	<polygon class="st2" points="167.6,329.8 706.3,329.8 438.2,808.7 	"/>
	<polygon class="st1" points="153.4,347 420.5,813.1 11.2,760 	"/>
	<polygon class="st1" points="452.6,813.1 721.3,347 864.2,755.5 	"/>
</g>
<polygon class="st3" points="864.2,755.5 729.5,311.3 438.2,12.3 821.3,249 "/>
<polygon class="st3" points="11.2,760 139.9,313.3 438.2,12.3 55.1,249 "/>
<polygon class="st3" points="11.2,760 438.4,838.1 864.2,755.5 438.2,938.5 "/>
<g>
	<path class="st4" d="M600.2,399.7H291c-7.7,0-13.2,1.1-16.4,3.3c-3.2,2.2-5.6,6.7-7.3,13.5h-8.8V347h8.8c1.6,6.7,4.1,11.2,7.3,13.4
		c3.2,2.2,8.7,3.4,16.4,3.4h323.2c7.7,0,13.1-1.1,16.4-3.4c3.2-2.2,5.6-6.7,7.3-13.4h8.8v49L469.1,697.8c-2.2,3.7-3.3,6.5-3.3,8.4
		c0,4,5.6,6.3,16.8,6.8v8.9h-84.4V713c6.6-0.7,11.6-2,15.1-3.8c3.5-1.8,6.5-4.9,9.1-9.1L600.2,399.7z"/>
</g>
</svg>
